<?xml version="1.0" standalone="no"?>
<!DOCTYPE svg PUBLIC "-//W3C//DTD SVG 20010904//EN"
 "http://www.w3.org/TR/2001/REC-SVG-20010904/DTD/svg10.dtd">
<svg version="1.0" xmlns="http://www.w3.org/2000/svg"
 width="208.000000pt" height="211.000000pt" viewBox="0 0 208.000000 211.000000"
 preserveAspectRatio="xMidYMid meet">

<g transform="translate(0.000000,211.000000) scale(0.100000,-0.100000)"
fill="#000000" stroke="none">
<path d="M584 2069 c-138 -23 -264 -90 -375 -199 -59 -59 -85 -95 -121 -167
-79 -158 -83 -186 -83 -663 0 -477 4 -505 83 -663 80 -160 226 -284 407 -344
l80 -27 429 -4 c494 -4 530 0 681 73 184 88 308 235 372 441 16 53 18 103 18
524 0 421 -2 471 -18 524 -64 206 -188 353 -372 441 -147 71 -185 75 -647 74
-222 -1 -426 -5 -454 -10z m986 -58 c189 -67 316 -173 395 -333 71 -146 75
-173 75 -638 0 -465 -4 -492 -75 -638 -80 -162 -210 -270 -400 -334 -69 -23
-75 -23 -520 -23 -443 0 -451 0 -525 23 -114 36 -196 86 -280 171 -85 86 -137
176 -169 291 -20 70 -21 101 -21 510 0 409 1 440 21 510 55 199 199 364 383
438 121 49 151 51 616 49 425 -3 437 -3 500 -26z"/>
<path d="M488 1715 c-116 -37 -165 -183 -95 -286 47 -69 150 -99 230 -65 70
29 126 129 112 199 -25 118 -136 186 -247 152z"/>
<path d="M1478 740 c-106 -33 -164 -139 -133 -241 43 -142 240 -173 332 -53
39 52 45 145 12 204 -39 70 -141 113 -211 90z"/>
</g>
</svg>
