<?xml version="1.0" standalone="no"?>
<!DOCTYPE svg PUBLIC "-//W3C//DTD SVG 20010904//EN"
 "http://www.w3.org/TR/2001/REC-SVG-20010904/DTD/svg10.dtd">
<svg version="1.0" xmlns="http://www.w3.org/2000/svg"
 width="209.000000pt" height="210.000000pt" viewBox="0 0 209.000000 210.000000"
 preserveAspectRatio="xMidYMid meet">

<g transform="translate(0.000000,210.000000) scale(0.100000,-0.100000)"
fill="#000000" stroke="none">
<path d="M575 2065 c-279 -62 -483 -265 -547 -542 -19 -83 -19 -883 0 -966 58
-252 231 -441 480 -526 l77 -26 429 -3 c496 -4 531 0 681 73 150 72 248 171
320 320 70 145 75 184 75 645 0 461 -5 500 -75 645 -72 150 -170 248 -320 320
-146 71 -183 75 -652 74 -302 0 -424 -4 -468 -14z m1005 -54 c246 -87 405
-263 454 -503 23 -113 23 -823 0 -936 -50 -242 -213 -421 -460 -504 -68 -23
-75 -23 -519 -23 -443 0 -451 0 -525 23 -116 36 -196 85 -285 176 -111 113
-167 231 -186 391 -12 104 -12 706 0 810 29 245 184 454 405 543 121 49 151
51 616 49 425 -3 436 -3 500 -26z"/>
<path d="M535 1725 c-5 -2 -22 -6 -37 -9 -37 -8 -98 -63 -114 -103 -29 -68 -9
-169 42 -214 53 -46 138 -62 201 -38 35 13 80 55 100 93 40 78 4 200 -74 242
-37 21 -98 36 -118 29z"/>
<path d="M1494 1720 c-88 -20 -147 -95 -147 -184 0 -109 79 -186 189 -186 103
0 184 81 184 184 0 56 -14 93 -48 129 -48 51 -116 72 -178 57z"/>
<path d="M535 1235 c-5 -2 -22 -6 -37 -9 -37 -8 -98 -63 -114 -103 -29 -68 -9
-169 42 -214 53 -46 138 -62 201 -38 35 13 80 55 100 93 40 78 4 200 -74 243
-37 21 -98 36 -118 28z"/>
<path d="M1488 1230 c-87 -26 -141 -97 -141 -184 0 -109 79 -186 189 -186 103
0 184 81 184 184 0 102 -64 175 -165 189 -22 3 -52 2 -67 -3z"/>
<path d="M496 735 c-78 -28 -126 -96 -126 -180 0 -112 87 -191 201 -183 101 7
170 81 171 182 1 78 -34 135 -104 170 -58 29 -86 31 -142 11z"/>
<path d="M1453 726 c-173 -81 -126 -340 66 -354 59 -4 102 10 145 47 51 45 71
146 42 214 -25 62 -111 117 -181 117 -11 0 -43 -11 -72 -24z"/>
</g>
</svg>
