<?xml version="1.0" standalone="no"?>
<!DOCTYPE svg PUBLIC "-//W3C//DTD SVG 20010904//EN"
 "http://www.w3.org/TR/2001/REC-SVG-20010904/DTD/svg10.dtd">
<svg version="1.0" xmlns="http://www.w3.org/2000/svg"
 width="209.000000pt" height="209.000000pt" viewBox="0 0 209.000000 209.000000"
 preserveAspectRatio="xMidYMid meet">

<g transform="translate(0.000000,209.000000) scale(0.100000,-0.100000)"
fill="#000000" stroke="none">
<path d="M575 2054 c-89 -19 -235 -90 -300 -145 -120 -103 -211 -255 -240
-401 -22 -112 -22 -844 0 -956 29 -146 120 -298 240 -401 56 -47 205 -123 277
-140 31 -7 207 -11 512 -11 l465 0 78 25 c232 73 405 259 468 501 22 86 22
922 0 1008 -63 242 -232 423 -470 504 l-80 27 -440 2 c-360 2 -453 -1 -510
-13z m1010 -53 c174 -57 319 -179 393 -331 76 -156 77 -161 77 -640 0 -479 -1
-484 -77 -640 -75 -154 -223 -277 -398 -332 -74 -23 -82 -23 -525 -23 -444 0
-451 0 -519 23 -245 82 -411 261 -461 497 -21 101 -21 849 0 950 55 260 270
467 535 515 25 5 239 7 475 6 420 -2 432 -2 500 -25z"/>
<path d="M518 1710 c-158 -47 -194 -249 -62 -340 71 -48 190 -35 246 27 91
100 44 270 -86 308 -55 17 -59 17 -98 5z"/>
<path d="M1003 1220 c-75 -18 -143 -105 -143 -182 0 -58 48 -138 99 -165 118
-62 264 11 278 141 9 75 -33 158 -96 190 -36 19 -99 26 -138 16z"/>
<path d="M1476 725 c-115 -41 -161 -184 -91 -285 75 -108 240 -105 313 7 67
102 12 250 -105 282 -49 14 -69 13 -117 -4z"/>
</g>
</svg>
