<?xml version="1.0" standalone="no"?>
<!DOCTYPE svg PUBLIC "-//W3C//DTD SVG 20010904//EN"
 "http://www.w3.org/TR/2001/REC-SVG-20010904/DTD/svg10.dtd">
<svg version="1.0" xmlns="http://www.w3.org/2000/svg"
 width="208.000000pt" height="209.000000pt" viewBox="0 0 208.000000 209.000000"
 preserveAspectRatio="xMidYMid meet">

<g transform="translate(0.000000,209.000000) scale(0.100000,-0.100000)"
fill="#000000" stroke="none">
<path d="M565 2054 c-90 -20 -236 -90 -302 -145 -106 -89 -186 -213 -230 -355
-16 -53 -18 -103 -18 -524 0 -421 2 -471 18 -524 44 -142 124 -266 230 -355
57 -48 206 -122 279 -140 31 -7 203 -11 512 -11 l465 0 78 25 c169 53 323 180
401 332 79 153 82 175 82 673 0 402 -2 443 -20 514 -59 231 -232 415 -465 493
l-80 27 -440 3 c-363 2 -452 -1 -510 -13z m1010 -53 c111 -36 193 -87 275
-170 85 -86 137 -176 169 -291 20 -70 21 -101 21 -510 0 -409 -1 -440 -21
-510 -32 -115 -84 -205 -169 -291 -84 -85 -166 -135 -280 -171 -74 -23 -82
-23 -525 -23 -445 0 -451 0 -520 23 -190 64 -320 172 -400 334 -71 146 -75
173 -75 638 0 465 4 492 75 638 91 183 268 315 475 352 25 5 239 7 475 6 420
-2 432 -2 500 -25z"/>
<path d="M510 1711 c-84 -26 -135 -83 -146 -164 -9 -60 29 -141 82 -176 71
-49 190 -36 246 26 91 100 44 270 -86 308 -55 16 -60 17 -96 6z"/>
<path d="M1471 1705 c-201 -64 -154 -365 57 -365 74 0 130 34 165 101 24 45
28 62 23 103 -14 120 -131 198 -245 161z"/>
<path d="M993 1220 c-50 -12 -103 -58 -125 -108 -55 -123 37 -262 172 -262
161 0 247 187 143 311 -44 52 -121 76 -190 59z"/>
<path d="M495 728 c-72 -26 -119 -82 -131 -155 -8 -52 9 -104 49 -150 106
-120 307 -57 325 102 15 135 -119 247 -243 203z"/>
<path d="M1466 725 c-154 -55 -168 -274 -21 -345 96 -46 203 -10 250 84 30 59
31 106 6 161 -24 51 -56 81 -110 100 -53 18 -74 18 -125 0z"/>
</g>
</svg>
