<?xml version="1.0" standalone="no"?>
<!DOCTYPE svg PUBLIC "-//W3C//DTD SVG 20010904//EN"
 "http://www.w3.org/TR/2001/REC-SVG-20010904/DTD/svg10.dtd">
<svg version="1.0" xmlns="http://www.w3.org/2000/svg"
 width="209.000000pt" height="210.000000pt" viewBox="0 0 209.000000 210.000000"
 preserveAspectRatio="xMidYMid meet">

<g transform="translate(0.000000,210.000000) scale(0.100000,-0.100000)"
fill="#000000" stroke="none">
<path d="M594 2069 c-275 -46 -499 -264 -566 -550 -18 -76 -18 -882 0 -958 60
-255 232 -446 477 -528 l80 -27 429 -4 c495 -4 531 0 681 73 149 72 247 170
320 320 70 143 75 182 75 645 0 463 -5 502 -75 645 -73 150 -171 248 -320 320
-146 71 -183 75 -647 74 -222 -1 -426 -5 -454 -10z m986 -58 c198 -70 323
-179 405 -353 61 -127 65 -166 65 -618 0 -452 -4 -491 -65 -618 -84 -176 -212
-287 -411 -354 -68 -23 -75 -23 -519 -23 -443 0 -451 0 -525 23 -175 55 -323
178 -398 332 -76 156 -77 161 -77 640 0 479 1 485 76 638 67 137 191 253 333
310 121 49 151 51 616 49 425 -3 436 -3 500 -26z"/>
<path d="M501 1715 c-80 -25 -131 -95 -131 -179 0 -49 25 -110 56 -137 55 -48
142 -63 207 -35 70 29 126 129 112 199 -24 116 -136 186 -244 152z"/>
<path d="M1494 1720 c-89 -21 -147 -95 -146 -185 0 -63 18 -101 66 -143 87
-76 231 -47 287 58 21 39 25 113 8 157 -30 81 -131 134 -215 113z"/>
<path d="M496 736 c-78 -29 -126 -97 -126 -181 0 -112 87 -191 201 -183 150
11 223 171 137 298 -43 63 -139 93 -212 66z"/>
<path d="M1452 724 c-84 -42 -121 -124 -98 -215 36 -136 202 -184 310 -90 51
45 71 146 42 214 -25 62 -111 117 -182 117 -11 0 -43 -12 -72 -26z"/>
</g>
</svg>
