<?xml version="1.0" standalone="no"?>
<!DOCTYPE svg PUBLIC "-//W3C//DTD SVG 20010904//EN"
 "http://www.w3.org/TR/2001/REC-SVG-20010904/DTD/svg10.dtd">
<svg version="1.0" xmlns="http://www.w3.org/2000/svg"
 width="208.000000pt" height="210.000000pt" viewBox="0 0 208.000000 210.000000"
 preserveAspectRatio="xMidYMid meet">

<g transform="translate(0.000000,210.000000) scale(0.100000,-0.100000)"
fill="#000000" stroke="none">
<path d="M555 2064 c-38 -8 -110 -35 -160 -59 -150 -72 -248 -171 -320 -320
-70 -145 -75 -184 -75 -645 0 -461 5 -500 75 -645 72 -149 170 -248 320 -320
150 -73 185 -77 681 -73 l429 3 77 26 c249 85 422 274 480 526 19 83 19 883 0
966 -58 252 -231 441 -480 526 l-77 26 -440 2 c-360 2 -453 -1 -510 -13z
m1010 -53 c114 -37 193 -87 280 -175 111 -113 167 -231 186 -391 12 -104 12
-706 0 -810 -19 -160 -75 -278 -186 -391 -89 -91 -169 -140 -285 -176 -74 -23
-82 -23 -525 -23 -444 0 -451 0 -519 23 -247 83 -410 262 -460 504 -23 113
-23 823 0 936 55 267 267 474 534 522 25 5 239 7 475 6 420 -2 432 -2 500 -25z"/>
<path d="M976 1228 c-73 -20 -136 -107 -136 -189 0 -41 46 -122 85 -148 51
-34 128 -39 188 -13 110 49 140 197 60 293 -46 54 -123 77 -197 57z"/>
</g>
</svg>
